<svg xmlns="http://www.w3.org/2000/svg" width="90" height="81" viewBox="0 0 90 81">
    <path fill="#7D8389" d="M23.509 20.04c.778 0 1.437.299 1.866.898l.102.156 2.25 3.586h37.969c-.281.843-.703 1.687-1.125 2.601-.07.211 0 .422.21.563.071.07.142.07.212.07.21 0 .351-.14.422-.281.482-.904.86-1.757 1.18-2.557l.156-.396h15.89c1.35 0 2.441 1.036 2.526 2.364l.006.167v6.047h1.125c1.975.409 3.356 2.203 2.93 4.296l-.048.204L85.384 76.5c-.137 2.041-1.853 3.622-3.875 3.722l-.204.005H7.9c-2.041 0-3.753-1.515-4.053-3.524l-.025-.203L.024 37.758c-.203-1.899.9-3.536 2.493-4.217l.179-.072h.703V21.867c0-.935.762-1.743 1.682-1.822l.146-.006H23.51zM4.805 36.21h-.421c-.662 0-1.262.624-1.271 1.283l.005.124 3.656 38.04c.065.587.434.993.993 1.048l.132.006h73.688c.659 0 1.194-.494 1.317-1.136l.019-.13 3.656-37.406c.067-.802-.628-1.667-1.542-1.751l-.146-.007-80.086-.07zm46.658 14.28c.55.549.55 1.44 0 1.988l-4.475 4.474 4.475 4.476c.55.549.55 1.44 0 1.989-.549.549-1.44.549-1.988 0L45 58.94l-4.475 4.476c-.549.549-1.44.549-1.988 0-.55-.55-.55-1.44 0-1.99l4.475-4.475-4.475-4.474c-.55-.549-.55-1.44 0-1.988.549-.55 1.44-.55 1.988 0L45 54.964l4.475-4.474c.549-.55 1.44-.55 1.988 0zM62.391 31.5c-1.054 1.758-1.828 3.023-1.828 3.023-.14.211-.07.493.211.704.07.07.14.07.211.07.14 0 .281-.07.352-.211 0-.07.773-1.266 1.828-3.094.14-.21.07-.492-.14-.633-.212-.14-.493-.07-.634.141zm5.907-15.328c.28.07.421.281.421.492-.14 1.406-.421 2.883-.843 4.43-.06.18-.173.31-.336.343l-.086.008h-.14c-.212-.07-.352-.351-.282-.562.352-1.477.633-2.953.773-4.29 0-.28.282-.421.493-.421zm-20.743-5.274c.07.141.141.352.211.493.493 1.125 1.407 1.828 2.532 2.039.28.07.421.351.351.562 0 .185-.161.315-.343.345l-.079.007h-.07c-1.336-.281-2.461-1.196-3.164-2.531-.14-.211-.211-.422-.281-.633-.07-.282.07-.492.28-.563.282-.07.493.07.563.281zm8.016-1.757c.188 0 .375.166.414.351l.008.07v.141c0 1.688-.774 3.164-2.18 4.008-.07.07-.14.07-.21.07-.141 0-.282-.07-.352-.21-.14-.212-.07-.493.14-.633 1.06-.662 1.682-1.76 1.752-3l.006-.235v-.14c0-.211.211-.422.422-.422zm11.953-.493c.633 1.336 1.055 2.813 1.195 4.43 0 .25-.166.445-.351.485l-.07.007h-.07c-.212 0-.423-.21-.423-.422-.14-1.476-.492-2.882-1.054-4.148-.14-.21 0-.492.21-.563.212-.14.493 0 .563.211zM29.626 7.523l1.758 1.196c.632.633.703 1.195.421 1.687-.351.563-1.968 1.477-2.53.211.21 1.477-.985 1.688-1.548 1.828-.537.135-1.458-.628-1.418-1.554l.012-.133.703-2.04 2.602-1.195zm.21-1.828c.128.32.024.756-.313.99l-.108.065-2.953 1.406c-.352.14-.844 0-1.055-.422-.195-.389-.03-.838.328-1.016l.094-.038 2.953-1.407c.352-.14.844 0 1.055.422zm21.305-1.547c.14.211.07.493-.14.633-1.266.914-2.25 1.969-2.883 3.094-.14.14-.281.21-.422.21-.07 0-.14 0-.21-.07-.212-.14-.282-.421-.142-.632.633-1.196 1.758-2.39 3.165-3.375.21-.14.492-.07.632.14zm.563-1.617c1.336.985 2.39 2.11 3.164 3.375.14.211.07.492-.14.633-.071.07-.141.07-.212.07-.14 0-.28-.07-.351-.21-.703-1.126-1.688-2.18-3.024-3.165-.14-.14-.21-.421-.07-.632.14-.141.422-.211.633-.07zm10.125.211c.773.352 1.476.844 2.18 1.406.562.422 1.054.915 1.476 1.407.125.187.139.43-.008.58l-.126.104c-.072.05-.165.09-.217.09-.141 0-.282-.071-.352-.141-.422-.493-.844-.915-1.336-1.336-.633-.563-1.266-.985-1.969-1.336-.21-.07-.281-.352-.21-.563.07-.21.35-.351.562-.21zM27.376 1.195c.525.066.927.438 1.036 1.23l.018.177-.21 2.039-2.602 1.195-2.04-.844c-.843-.562-.843-1.758-.35-2.18.421-.351 1.406-1.054 2.39.07-.703-1.195 1.125-1.827 1.758-1.687zm5.976 1.828c.14.211.07.493-.14.633-.633.352-1.196.774-1.828 1.196-.07.07-.211.07-.282.07-.14 0-.281-.07-.351-.211-.211-.211-.14-.492.07-.633.633-.422 1.266-.844 1.898-1.195.211-.14.493-.07.633.14zM57.47 1.687l.282.019c.187.02.375.052.562.052.281 0 .422.281.422.492 0 .25-.167.389-.401.417l-.091.005h-.774c-.984 0-2.022.161-3.02.437l-.425.125h-.14c-.211 0-.352-.14-.422-.351-.07-.211.07-.492.28-.563 1.267-.422 2.532-.632 3.727-.632zM40.876.563c.07.211-.14.422-.352.493-1.23.184-2.46.476-3.691.924l-.528.2h-.14c-.14 0-.352-.14-.422-.21-.07-.211.07-.492.281-.563C37.43.844 38.907.422 40.384.211c.21-.07.421.14.492.352zM43.969 0c1.618.07 3.094.422 4.5.914.282.07.352.352.282.563-.06.12-.173.24-.336.273l-.086.008h-.14c-1.337-.422-2.743-.774-4.22-.844-.21-.07-.421-.281-.492-.492 0-.281.282-.422.492-.422z"/>
</svg>
