<svg xmlns="http://www.w3.org/2000/svg" width="445" height="356" viewBox="0 0 445 356">
    <g fill="none" fill-rule="nonzero">
        <rect width="40.32" height="12.16" x="90.88" y="60.8" fill="#6C63FF" opacity=".1" rx="4.755"/>
        <rect width="40.32" height="12.16" x="133.12" y="72.96" fill="#6C63FF" opacity=".1" rx="4.755"/>
        <rect width="40.32" height="12.16" x="175.36" y="85.12" fill="#6C63FF" opacity=".1" rx="4.755"/>
        <rect width="40.32" height="12.16" x="90.88" y="42.88" fill="#6C63FF" opacity=".1" rx="4.755"/>
        <rect width="40.32" height="12.16" x="133.12" y="55.04" fill="#6C63FF" opacity=".1" rx="4.755"/>
        <rect width="40.32" height="12.16" x="175.36" y="67.2" fill="#6C63FF" opacity=".1" rx="4.755"/>
        <rect width="40.32" height="12.16" x="222.08" y="60.8" fill="#6C63FF" opacity=".1" rx="4.755"/>
        <rect width="40.32" height="12.16" x="264.32" y="72.96" fill="#6C63FF" opacity=".1" rx="4.755"/>
        <rect width="40.32" height="12.16" x="306.56" y="85.12" fill="#6C63FF" opacity=".1" rx="4.755"/>
        <rect width="40.32" height="12.16" x="222.08" y="42.88" fill="#6C63FF" opacity=".1" rx="4.755"/>
        <rect width="40.32" height="12.16" x="264.32" y="55.04" fill="#6C63FF" opacity=".1" rx="4.755"/>
        <rect width="40.32" height="12.16" x="306.56" y="67.2" fill="#6C63FF" opacity=".1" rx="4.755"/>
        <rect width="40.32" height="12.16" x="90.88" y="18.56" fill="#6C63FF" opacity=".1" rx="4.755"/>
        <rect width="40.32" height="12.16" x="133.12" y="30.72" fill="#6C63FF" opacity=".1" rx="4.755"/>
        <rect width="40.32" height="12.16" x="175.36" y="42.88" fill="#6C63FF" opacity=".1" rx="4.755"/>
        <rect width="40.32" height="12.16" x="90.88" fill="#6C63FF" opacity=".1" rx="4.755"/>
        <rect width="40.32" height="12.16" x="133.12" y="12.16" fill="#6C63FF" opacity=".1" rx="4.755"/>
        <rect width="40.32" height="12.16" x="175.36" y="24.32" fill="#6C63FF" opacity=".1" rx="4.755"/>
        <rect width="40.32" height="12.16" x="222.08" y="18.56" fill="#6C63FF" opacity=".1" rx="4.755"/>
        <rect width="40.32" height="12.16" x="264.32" y="30.72" fill="#6C63FF" opacity=".1" rx="4.755"/>
        <rect width="40.32" height="12.16" x="306.56" y="42.88" fill="#6C63FF" opacity=".1" rx="4.755"/>
        <rect width="40.32" height="12.16" x="222.08" fill="#6C63FF" opacity=".1" rx="4.755"/>
        <rect width="40.32" height="12.16" x="264.32" y="12.16" fill="#6C63FF" opacity=".1" rx="4.755"/>
        <rect width="40.32" height="12.16" x="306.56" y="24.32" fill="#6C63FF" opacity=".1" rx="4.755"/>
        <rect width="40.32" height="12.16" x="90.88" y="277.76" fill="#6C63FF" opacity=".1" rx="4.755"/>
        <rect width="40.32" height="12.16" x="133.12" y="289.92" fill="#6C63FF" opacity=".1" rx="4.755"/>
        <rect width="40.32" height="12.16" x="175.36" y="302.08" fill="#6C63FF" opacity=".1" rx="4.755"/>
        <rect width="40.32" height="12.16" x="90.88" y="259.84" fill="#6C63FF" opacity=".1" rx="4.755"/>
        <rect width="40.32" height="12.16" x="133.12" y="272" fill="#6C63FF" opacity=".1" rx="4.755"/>
        <rect width="40.32" height="12.16" x="175.36" y="284.16" fill="#6C63FF" opacity=".1" rx="4.755"/>
        <rect width="40.32" height="12.16" x="222.08" y="277.76" fill="#6C63FF" opacity=".1" rx="4.755"/>
        <rect width="40.32" height="12.16" x="264.32" y="289.92" fill="#6C63FF" opacity=".1" rx="4.755"/>
        <rect width="40.32" height="12.16" x="306.56" y="302.08" fill="#6C63FF" opacity=".1" rx="4.755"/>
        <rect width="40.32" height="12.16" x="222.08" y="259.84" fill="#6C63FF" opacity=".1" rx="4.755"/>
        <rect width="40.32" height="12.16" x="264.32" y="272" fill="#6C63FF" opacity=".1" rx="4.755"/>
        <rect width="40.32" height="12.16" x="306.56" y="284.16" fill="#6C63FF" opacity=".1" rx="4.755"/>
        <rect width="40.32" height="12.16" x="90.88" y="235.52" fill="#6C63FF" opacity=".1" rx="4.755"/>
        <rect width="40.32" height="12.16" x="133.12" y="247.68" fill="#6C63FF" opacity=".1" rx="4.755"/>
        <rect width="40.32" height="12.16" x="175.36" y="259.84" fill="#6C63FF" opacity=".1" rx="4.755"/>
        <rect width="40.32" height="12.16" x="90.88" y="216.96" fill="#6C63FF" opacity=".1" rx="4.755"/>
        <rect width="40.32" height="12.16" x="133.12" y="229.12" fill="#6C63FF" opacity=".1" rx="4.755"/>
        <rect width="40.32" height="12.16" x="175.36" y="241.28" fill="#6C63FF" opacity=".1" rx="4.755"/>
        <rect width="40.32" height="12.16" x="222.08" y="235.52" fill="#6C63FF" opacity=".1" rx="4.755"/>
        <rect width="40.32" height="12.16" x="264.32" y="247.68" fill="#6C63FF" opacity=".1" rx="4.755"/>
        <rect width="40.32" height="12.16" x="306.56" y="259.84" fill="#6C63FF" opacity=".1" rx="4.755"/>
        <rect width="40.32" height="12.16" x="222.08" y="216.96" fill="#6C63FF" opacity=".1" rx="4.755"/>
        <rect width="40.32" height="12.16" x="264.32" y="229.12" fill="#6C63FF" opacity=".1" rx="4.755"/>
        <rect width="40.32" height="12.16" x="306.56" y="241.28" fill="#6C63FF" opacity=".1" rx="4.755"/>
        <ellipse cx="225.92" cy="338.24" fill="#6C63FF" opacity=".1" rx="205.44" ry="16.96"/>
        <path fill="#EDC73B" d="M39.793 87.385C59.23 95.76 70.4 113.088 70.4 113.088s-20.35 3.738-39.793-4.631C11.165 100.087 0 82.754 0 82.754s20.35-3.743 39.793 4.631zM98.968 54.976c6.002-9.928 16.223-14.656 16.223-14.656s.47 11.318-5.514 21.217c-5.983 9.9-16.227 14.623-16.227 14.623s-.489-11.313 5.518-21.184z"/>
        <path fill="#46455B" d="M54.912 66.029C59.254 81.4 71.223 91.52 71.223 91.52s4.931-14.812.589-30.189C67.469 45.955 55.495 35.84 55.495 35.84s-4.93 14.812-.583 30.189z"/>
        <rect width="341.76" height="170.88" x="55.68" y="65.28" fill="#3F3D56" rx="4.614"/>
        <path fill="#000" d="M55.68 225.92h341.76v6.884c0 1.853-1.513 3.356-3.38 3.356h-335c-1.867 0-3.38-1.503-3.38-3.356v-6.884z" opacity=".1"/>
        <g fill="#EBEBEB" transform="translate(71.68 75.52)">
            <rect width="25.6" height="12.8" x="10.88" y="137.6" rx="1.6"/>
            <rect width="17.28" height="1.92" x="43.52" y="148.48" rx=".96"/>
            <path d="M27.77 23.393c12.362 2.278 24.972 0 37.283-1.544l37.415-4.68c1.513-.191 3.715-1.094 4.605.754.5 1.034.164 3.275.201 4.464.098 3.275.089 6.55 0 9.825-.169 6.26-.628 12.507-1.213 18.74-1.139 12.197-2.75 24.33-3.556 36.574-.412 6.233-.618 12.484-.435 18.716.042 1.488.103 2.976.192 4.459.098 1.66.843 4.127-.97 5.236-1.035.636-3.073.603-4.258.79-1.874.295-3.748.529-5.659.72-12.597 1.26-25.357.735-38 .66l-38.179-.196-9.312-.051c-.844 0-3.884.505-4.404-.496-.22-.426.365-2.42.469-2.953.143-.88.3-1.758.468-2.634 1.087-6.153 2.37-12.268 3.663-18.379 2.778-13.1 5.622-26.267 6.765-39.649.566-6.714.192-13.489.885-20.19.323-3.11.707-10.054 4.853-10.33 3.513-.234 7.13 0 10.653 0a.702.702 0 1 0 0-1.404c-3.326 0-6.657-.089-9.983-.023-2.211.042-3.748.566-4.802 2.597-2.693 5.212-2.417 12.165-2.501 17.854-.202 13.62-2.295 26.95-5.022 40.272-1.372 6.704-2.853 13.386-4.216 20.095a392.779 392.779 0 0 0-1.817 9.644c-.263 1.534-1.588 4.917-.422 6.325 1.166 1.409 4.755.65 6.361.66l11.178.066 21.417.121c13.838.08 27.723.468 41.556.061 6.605-.196 13.585-.468 20.017-2.045 1.915-.467 2.838-1.347 2.913-3.387.113-3.163-.403-6.424-.468-9.601-.469-27.185 5.926-53.99 5.27-81.184-.042-1.848.656-6.508-1.368-7.626-.909-.506-2.09-.23-3.045-.117-1.827.21-3.65.468-5.476.683L75.1 19.177c-7.584.936-15.163 1.946-22.762 2.807-8.043.936-16.166 1.493-24.18 0-.886-.164-1.266 1.189-.376 1.352l-.014.057z"/>
            <path d="M41.602 28.072a2.217 2.217 0 0 0-.587 2.046c.167.734.699 1.34 1.421 1.621 1.267.56 2.756.091 4.013-.213a86.64 86.64 0 0 1 5.705-1.19 80.567 80.567 0 0 1 12.76-1.146c1.95-.023 3.887.064 5.837.146 1.413.054 2.935.163 4.131-.682 1.366-.963 1.809-2.844.471-4.017-1.884-1.658-5.945-.695-8.12-.522a188.357 188.357 0 0 0-23.487 3.38c-.886.182-.514 1.5.376 1.313a192.236 192.236 0 0 1 15.446-2.562c2.55-.303 5.105-.56 7.664-.768 1.206-.096 2.412-.182 3.618-.25.47-.027.97-.077 1.45-.064 1.494.032 1.668-.227.773 1.513-.796 1.54-.541 1.364-1.922 1.314-.584 0-1.168-.064-1.752-.091a82.057 82.057 0 0 0-11.211.277 84.5 84.5 0 0 0-6.416.845 83.438 83.438 0 0 0-5.704 1.19c-.278.073-.56.137-.839.205-1.03.345-1.907-.109-2.633-1.363.631-.632-.363-1.6-.998-.963l.004-.019zM58.989 47.797c-6.832-.261-14.212 1.561-18.711 6.991-3.523 4.247-5.53 11.532-1.8 16.314 4.01 5.128 12.8 4.223 18.103 2.037 5.609-2.33 11.747-7.136 13.433-13.149 2.1-7.509-4.722-13.186-11.828-13.27-.911 0-.911 1.398 0 1.398 4.051.047 8.027 1.762 9.915 5.486 1.979 3.925.274 8.046-2.36 11.187-4.221 5.002-10.822 8.772-17.545 8.665-4.037-.06-8.5-1.426-9.75-5.63-1.03-3.408-.246-7.132 1.548-10.152 3.881-6.526 11.78-8.735 19.023-8.456.911.033.911-1.365 0-1.398l-.028-.023z"/>
            <path d="M51.849 58.53a1.948 1.948 0 0 0-1.82.266c-.519.386-.8 1.005-.742 1.639.147 1.857 2.249 2.38 3.828 2.271 1.364-.114 2.957-.605 2.478-2.266a2.15 2.15 0 0 0-1.193-1.343 2.83 2.83 0 0 0-1.378-.167c-.181 0-1.838.59-1.134-.119l-1.154-.147c.26.249.389.599.352.952a.716.716 0 0 0 .371.611.755.755 0 0 0 .729.003.998.998 0 0 1 1.016.158c.281.236.4.606.309.956-.082.34.1.69.43.825.331.137.715.022.909-.272.489-.857 1.08-2.562.347-3.457-.489-.605-1.432-.424-2.019-.072-.362.25-.699.532-1.007.843-.591.51-.977.748-.757-.228.366-1.776 2.106-3.19 3.695-3.9l-1.075-.805a14.917 14.917 0 0 1-2.958 5.643l1.252.504c-.073-1.34.725-2.58 1.994-3.1h-.718l.38.61c-.14.9 1.272 1.286 1.413.376.186-1.176-.576-2.704-1.989-2.128-1.686.686-2.561 2.566-2.527 4.242 0 .572.83 1.015 1.256.51a16.64 16.64 0 0 0 3.329-6.28.714.714 0 0 0-.27-.746.76.76 0 0 0-.81-.06 8.137 8.137 0 0 0-3.559 3.02c-.596.952-1.344 2.437-.738 3.533.2.354.538.615.938.725.4.11.827.06 1.188-.14a5.697 5.697 0 0 0 1.227-.952c.181-.157.382-.429.621-.476.215-.143.205-.062-.034.252-.003.494-.15.976-.425 1.39l1.339.548a2.345 2.345 0 0 0-.83-2.462 2.497 2.497 0 0 0-2.646-.266l1.105.619a2.55 2.55 0 0 0-.552-1.681.756.756 0 0 0-1.149-.148c-.743.757-.885 2.067.049 2.767.699.519 1.041 0 1.809-.12 2.605-.328 1.085.815.166.853-.411.043-.827.014-1.227-.086-1.02-.336-1.084-.77-.19-1.3.874.348 1.25-1.033.39-1.376l-.02-.019z"/>
            <path d="M51.012 61.025c.565 1.875-1.77 2.494-2.876 3.14a6.445 6.445 0 0 0-1.99 1.777c-1.157 1.584-1.589 3.6-1.97 5.497-.175.886 1.153 1.261 1.332.375a16.18 16.18 0 0 1 1.162-4.044c.827-1.678 2.012-2.24 3.556-3.103s2.66-2.198 2.113-4.017c-.257-.862-1.59-.492-1.327.375z"/>
            <path d="M50.718 63.41l-3.715 5.155 1.175.72 2.722-4.14-1.243-.552-1.357 5.441a.73.73 0 0 0 .4.827.667.667 0 0 0 .843-.273 25.17 25.17 0 0 1 2.074-3.067l-1.134-.696a7.915 7.915 0 0 1-1.71 3.305l1.138.696c.07-.659.236-1.303.494-1.908.35-.825-.757-1.554-1.175-.725a16.93 16.93 0 0 1-1.31 2.166l1.242.171.277-1.359L48.196 69l.2 1.193c.066.244.25.433.484.497a.662.662 0 0 0 .654-.183 14.318 14.318 0 0 0 2.722-4.316h-1.17c.308.597.524 1.24.64 1.908.163.858 1.247.539 1.334-.19.194-1.598.294-3.207.299-4.818h-1.361v3c0 .778 1.211 1.007 1.338.191.09-.724.317-1.42.667-2.05H52.81c.288.487.444 1.047.454 1.62 0 .396.304.716.68.716.376 0 .68-.32.68-.715l.173-.954h-1.311c.132.844.63 5.599-1.143 5.04-.3-.075-.386-.056-.259.053l.404-.906.948-2.112-1.27-.363c.081.983.168 2.385-.395 3.224-.454.682-1.851.954-2.563.553a4.677 4.677 0 0 1-1.185-1.307l-.93.954c.754.577 1.974 1.994 2.945 2.075.74.062 1.361-.582 1.846-1.097 1.505-1.635 2.307-3.846 2.219-6.119 0-.395-.305-.715-.68-.715-.376 0-.681.32-.681.715v1.631c0 .395.305.716.68.716.376 0 .681-.32.681-.716v-4.001c0-.395-.305-.716-.68-.716-.376 0-.681.32-.681.716-.003.959-.081 1.916-.236 2.861l1.338.191a34.614 34.614 0 0 1-.15-3.429.704.704 0 0 0-.588-.7.681.681 0 0 0-.745.51c-.204.91-.454 1.807-.694 2.699l1.243-.172-.095-.382c-.064-.91-1.425-.915-1.362 0 .015.387.111.764.282 1.107.263.582 1.084.377 1.243-.172.258-.896.49-1.793.694-2.7l-1.338-.19c-.007 1.145.043 2.29.15 3.43.067.734 1.193 1.048 1.333.19.181-1.077.277-2.168.286-3.262h-1.361v4.001h1.361v-1.63h-1.361c.08 1.798-.515 3.559-1.656 4.902a5.72 5.72 0 0 1-.572.591c-.322.324-.617.277-.875-.148-.645-.281-1.312-1.006-1.874-1.43-.563-.425-1.334.414-.935.977 1.044 1.46 2.6 3.086 4.537 2.385 2.037-.758 2.314-3.658 2.16-5.566-.05-.634-.953-1.063-1.266-.357-.454 1.006-.907 2.007-1.361 3.018-.159.353-.454.84-.408 1.26.15 1.073 1.388.896 2.15.834 2.954-.234 2.486-4.636 2.146-6.848-.113-.735-1.13-.62-1.311 0-.144.435-.22.893-.222 1.354h1.36a5.89 5.89 0 0 0-.639-2.342.679.679 0 0 0-.588-.35.679.679 0 0 0-.587.35 7.188 7.188 0 0 0-.808 2.385l1.361.19v-3c0-.394-.304-.715-.68-.715-.376 0-.68.32-.68.716a40.735 40.735 0 0 1-.3 4.817l1.338-.191a8.46 8.46 0 0 0-.776-2.232.679.679 0 0 0-.587-.35.679.679 0 0 0-.588.35 13.129 13.129 0 0 1-2.509 4.025l1.14.315-.2-1.192c-.105-.635-.958-.654-1.244-.172a3.272 3.272 0 0 0-.412 2.46c.113.678.93.607 1.243.173.489-.684.927-1.407 1.31-2.16l-1.174-.726a8.45 8.45 0 0 0-.635 2.246c-.082.63.63 1.288 1.138.697a9.69 9.69 0 0 0 2.06-3.94c.168-.648-.685-1.263-1.139-.696a27.348 27.348 0 0 0-2.268 3.339l1.243.553 1.384-5.423a.73.73 0 0 0-.4-.826.667.667 0 0 0-.843.273l-2.722 4.144c-.509.768.657 1.431 1.175.72l3.702-5.15c.526-.735-.653-1.43-1.175-.725h-.037zM110.502 79.893c5.632-3.42 10.109-8.522 15.083-12.79 5.397-4.626 11.062-8.936 16.895-13.018 11.329-7.92 23.225-15.007 35.112-22.075a.696.696 0 0 0 .232-.943.707.707 0 0 0-.94-.264c-11.888 7.068-23.789 14.14-35.117 22.076-5.346 3.727-10.564 7.678-15.567 11.872-5.444 4.566-10.291 10.25-16.425 13.936-.774.465-.066 1.677.708 1.206h.02z"/>
            <path d="M195.49 10.244c-6.102.616-12.673 2.16-16.428 7.466-3.243 4.564-3.173 12.524-.127 17.21 3.46 5.324 10.529 5.515 16.02 3.793 5.492-1.722 11.176-4.74 11.125-11.264-.029-3.5-1.3-7.144-2.704-10.318-1.211-2.739-3.356-5.132-6.604-4.83-.897.085-.906 1.485 0 1.4 4.351-.4 5.75 4.737 6.782 7.98.94 3.029 1.807 6.612.334 9.622-1.474 3.01-5.027 4.545-8.064 5.646-3.286 1.186-6.896 1.909-10.327.934-6.796-1.89-8.674-10.453-6.717-16.528 2.253-7 10.233-9.058 16.734-9.711.892-.089.901-1.489 0-1.4h-.024zM205.09 64.644c-6.102.616-12.673 2.16-16.428 7.466-3.243 4.564-3.173 12.524-.127 17.21 3.46 5.324 10.529 5.515 16.02 3.793 5.492-1.722 11.176-4.74 11.125-11.264-.029-3.5-1.3-7.144-2.704-10.318-1.211-2.739-3.356-5.132-6.604-4.83-.897.085-.906 1.485 0 1.4 4.351-.4 5.75 4.737 6.782 7.98.94 3.029 1.807 6.612.334 9.622-1.474 3.01-5.027 4.545-8.064 5.646-3.286 1.186-6.896 1.909-10.327.934-6.796-1.89-8.674-10.453-6.717-16.529 2.253-6.999 10.233-9.057 16.734-9.71.892-.089.901-1.489 0-1.4h-.024z"/>
            <path d="M186.412 24.142l4.499 5.098a.72.72 0 0 0 1.187-.316c.95-2.483.77-5.055.993-7.665a25.109 25.109 0 0 1 2.019-7.822A26.451 26.451 0 0 1 205.74 1.331c.784-.472.067-1.7-.717-1.223a27.781 27.781 0 0 0-10.75 11.734 27.002 27.002 0 0 0-2.375 7.49c-.475 3.064-.043 6.274-1.183 9.214l1.192-.316-4.475-5.088c-.608-.685-1.61.32-1.007 1h-.014zM112.677 85.76a1647.15 1647.15 0 0 1 72.247-.426c.901 0 .901-1.278 0-1.278-24.082-.392-48.164-.25-72.247.426-.9.025-.905 1.303 0 1.278zM190.523 71.806a143.08 143.08 0 0 1 23.49 11.928c.76.468 1.46-.736.7-1.214a144.606 144.606 0 0 0-23.8-12.068c-.83-.333-1.192 1.026-.366 1.354h-.024z"/>
            <path d="M204.926 65.512c-8.247 9.77-13.025 22.07-13.565 34.93-.037.904 1.347.904 1.383 0 .524-12.49 5.158-24.44 13.16-33.936.576-.685-.397-1.683-.978-.994zM17.339 80.283l52.51-.668 6.036-.078c1.086 0 2.171-.036 3.256-.041 1.527 0 2.556 1.235 2.528 2.745-.07 3.203-2.138 3.089-4.844 3.203l-6.525.289-26.572 1.14c-4.76.205-9.523.457-14.282.617-4.294.128-12.46-1.236-10.552-7.321.263-.847-1.095-1.208-1.363-.366-.94 2.992.724 6.03 3.402 7.6 3.8 2.224 8.809 1.469 13.004 1.286l32.623-1.442 7.92-.343c2.03-.091 4.854.311 6.719-.608 2.19-1.076 2.574-5.345 1.193-7.143-.71-.915-1.705-.998-2.819-1.039-2.922-.11-5.896.078-8.822.114l-16.265.21-37.166.459c-.907 0-.907 1.372 0 1.372l.019.014zM53.335 60.16a1.324 1.324 0 0 0-1.134 1.373c0 .544.358.892.603 1.326a10.52 10.52 0 0 1 1.316 2.887c.217.984.43 2.745-.078 3.66-.939 1.698-2.635 1.373-4.082 1.373-1.361 0-2.414.457-2.368-1.455.027-1.075.771-2.164 1.36-3.01l-1.242-.165c.262 1.397.4 2.815.413 4.236 0 .636.966.989 1.265.343a26.651 26.651 0 0 0 1.729-4.822l-1.339-.183.236 3.477a.682.682 0 1 0 1.266.348 1.56 1.56 0 0 0 .34-.618c.045-.215-.372-1.665-.54-1.148l1.334.183.095-3.303-1.36.183c.287.931.374 1.914.253 2.882-.086.764 1.189.938 1.361.183l.853-4.438-1.243.16c.295.614.377 1.31.231 1.977-.1.878 1.261.87 1.361 0a4.859 4.859 0 0 0-.417-2.667.683.683 0 0 0-1.243.164l-.857 4.438 1.338.183a7.546 7.546 0 0 0-.304-3.244.68.68 0 0 0-1.334.179l-.095 3.303c0 .8 1.102.915 1.338.183l.073-.224a.7.7 0 0 0-.173-.668c-1.41-1.546-1.696.915-2.186 1.597l1.27.347-.236-3.477c-.05-.74-1.138-.97-1.338-.183a24.735 24.735 0 0 1-1.588 4.498l1.27.347a26.082 26.082 0 0 0-.453-4.602c-.118-.632-.94-.604-1.243-.165-.907 1.318-2.477 4.195-1.266 5.774 1.057 1.372 4.382.842 5.802.755 2.241-.128 3.053-1.56 3.298-3.692a9.116 9.116 0 0 0-.168-3.057c-.122-.54-1.36-3.962-1.733-3.893.862-.16.495-1.487-.363-1.327l-.022-.018zM16.675 39.68l93.367-4.41c.902-.044.906-1.394 0-1.349L16.675 38.33c-.898.04-.902 1.39 0 1.35z"/>
        </g>
        <g transform="translate(300.16 104.96)">
            <path fill="#323444" d="M7.048 223.515c-1.185.741-2.539 1.158-3.761 1.81-1.223.652-2.412 1.633-2.76 2.984-.13.42-.109.87.06 1.276.305.489.77.857 1.317 1.041a20.023 20.023 0 0 0 15.804.178 20.846 20.846 0 0 1 2.727-1.079c1.15-.234 2.32-.353 3.494-.356a26.915 26.915 0 0 0 3.672-.47 3.234 3.234 0 0 0 1.664-.689c.437-.501.699-1.13.748-1.792a14.724 14.724 0 0 0-2.35-10.45c-.261-.43-.61-.8-1.026-1.084a3.962 3.962 0 0 0-1.632-.436c-2.35-.287-4.814-.812-7.189-.868-1.702-.038-2.558.77-3.762 1.937-2.487 2.481-3.94 6.089-7.006 7.998zM41.698 223.168c0 2.298.277 4.733 1.674 6.567a8.688 8.688 0 0 0 2.285 1.993c2.953 1.877 6.865 2.566 9.978.976a2.96 2.96 0 0 0 1.24-1.041c.471-.817.222-1.834-.041-2.735l-4.505-15.573c-2.91.445-7.19.76-9.776 2.232-1.876 1.065-.855 5.526-.855 7.58z"/>
            <path fill="#FBB3B2" d="M4.406 127.274c-.273.859-1.26 1.258-1.801 1.98-.635.849-.569 2.026-.339 3.058a8.08 8.08 0 0 0 2.065 4.058 4.883 4.883 0 0 0 4.231 1.435c1.514-.286 2.822-1.623 2.873-3.157a5.964 5.964 0 0 0-.442-2.03l-3.206-9.25a.47.47 0 0 0-.226-.315.471.471 0 0 0-.353.06c-.757.357-2.276.733-2.718 1.516-.442.783.236 1.796-.084 2.645z"/>
            <path fill="#323444" d="M2.906 126.81c1.17-.183 2.196-.868 3.291-1.318 1.096-.45 2.469-.624 3.39.127.264.215.518.51.86.506a33.523 33.523 0 0 0-2.106-6.68.52.52 0 0 0-.183-.257.533.533 0 0 0-.4 0l-3.164.825c-1.17.305-1.307.211-1.218 1.36.024.512.287 5.437-.47 5.437z"/>
            <path fill="#5B5583" d="M2.558 60.014c-.47.722-.47 1.623-.47 2.472 0 4.151.042 8.326.658 12.435.146.985.33 1.97.423 2.964.107 1.385.129 2.774.066 4.161l-.47 18.06c-.057 2.209-.17 4.582-1.538 6.318a3.016 3.016 0 0 0-.55 2.003c.357 4.531 1.11 9.025 1.857 13.505a8.383 8.383 0 0 1 7.59.36 83.155 83.155 0 0 0 3.897-22.984c.109-3.842-.056-7.707.537-11.502.992-6.388.587-12.941-.142-19.368-.23-2.036-.719-4.132-2.026-5.708a8.68 8.68 0 0 0-4.702-2.702c-1.74-.455-3.296.014-5.13-.014z"/>
            <path fill="#000" d="M2.558 60.014c-.47.722-.47 1.623-.47 2.472 0 4.151.042 8.326.658 12.435.146.985.33 1.97.423 2.964.107 1.385.129 2.774.066 4.161l-.47 18.06c-.057 2.209-.17 4.582-1.538 6.318a3.016 3.016 0 0 0-.55 2.003c.357 4.531 1.11 9.025 1.857 13.505a8.383 8.383 0 0 1 7.59.36 83.155 83.155 0 0 0 3.897-22.984c.109-3.842-.056-7.707.537-11.502.992-6.388.587-12.941-.142-19.368-.23-2.036-.719-4.132-2.026-5.708a8.68 8.68 0 0 0-4.702-2.702c-1.74-.455-3.296.014-5.13-.014z" opacity=".1"/>
            <path fill="#3C354C" d="M8.304 112.386a82.66 82.66 0 0 0 4.946 47.958 12.985 12.985 0 0 1 1.148 3.547c.258 2.298-.804 4.507-1.411 6.73-1.41 5.057-.597 10.442.306 15.616.376 2.158.763 4.314 1.161 6.469.39 2.101.767 4.386-.212 6.29.842 3.5 1.34 6.966 2.182 10.465.09.277.117.57.08.859-.17.458-.468.857-.86 1.149a5.123 5.123 0 0 0-1.312 4.911c2.149-1.538 5.144-.999 7.598 0 2.455 1 4.872 2.346 7.524 2.346-.386-3.106-.757-6.366.39-9.279.668-1.688 1.843-3.283 1.81-5.09-.033-1.618-1.025-3.062-1.265-4.662-.089-.995-.05-1.998.113-2.983.63-5.742-.085-11.54-.8-17.272a10.3 10.3 0 0 0-.79-3.283c-.333-.676-.831-1.323-.822-2.078 0-.877.71-1.59.973-2.425.47-1.539-.395-3.63.908-4.583 3.432-2.514 2.116-8.519 2.04-12.764-.06-3.662-.216-7.32-.47-10.976a46.65 46.65 0 0 1 2.596 18.922c-.15 2.102-.428 4.311.395 6.253.63 1.492 1.88 2.72 2.22 4.302.21.975.06 1.984.107 2.978.047.995.386 2.078 1.246 2.58.066 4.522.47 9.358.541 13.88a34.162 34.162 0 0 0 .564 6.896c.211.723.328 1.47.348 2.223a9.275 9.275 0 0 1-.743 2.735 15.65 15.65 0 0 0 2.351 14.47c1.11-1.965 3.423-3.006 5.68-3.17 2.257-.164 4.486.403 6.673.975a13.01 13.01 0 0 1 1.56-7.927 6.48 6.48 0 0 0 .824-1.764c.253-1.191-.339-2.378-.659-3.555-.522-1.877-.338-3.898-.216-5.859a92.488 92.488 0 0 0-.87-19.664 16.624 16.624 0 0 0-.898-3.752c-.17-.432-.376-.845-.517-1.28a10.072 10.072 0 0 1-.376-2.403l-.541-7.505c-.381-5.258 1.35-10.45 2.558-15.582.54-2.299 1.128-4.593 1.49-6.929.494-3.18.574-6.43 1.298-9.569.649-2.814 1.82-5.558 2.064-8.443.376-4.47-1.486-8.79-3.291-12.89-.752-1.69-3.597-1.52-5.426-1.82-12.973-2.125-26.637-2.14-38.872 2.65a9.673 9.673 0 0 0-3.343 2.303z"/>
            <path fill="#FBB3B2" d="M17.656 29.13l1.439 5.582c.391 1.28.608 2.607.644 3.945.015.488-.093.971-.315 1.407-.237.357-.54.666-.893.91-.983.746-1.665 2.486-2.789 3.002.579 1.004 1.378.352 2.422.854 1.838.89 3.522 2.171 5.515 2.612 1.881.413 3.856.024 5.723-.469 2.647-.717 5.28-1.707 7.41-3.438 2.13-1.73 3.343-3.26 3.334-5.995-2.351.277-4.443-2.092-5.483-4.222-.36-.809-.625-1.657-.79-2.528l-1.26-5.53c-1.373.3-2.492 1.28-3.804 1.792-1.311.51-2.863.558-4.32.623-2.588.118-5.161.45-7.693.995-.348.07-.786.29-.7.629"/>
            <path fill="#000" d="M17.656 29.13l1.439 5.582c.391 1.28.608 2.607.644 3.945.015.488-.093.971-.315 1.407-.237.357-.54.666-.893.91-.983.746-1.665 2.486-2.789 3.002.579 1.004 1.378.352 2.422.854 1.838.89 3.522 2.171 5.515 2.612 1.881.413 3.856.024 5.723-.469 2.647-.717 5.28-1.707 7.41-3.438 2.13-1.73 3.343-3.26 3.334-5.995-2.351.277-4.443-2.092-5.483-4.222-.36-.809-.625-1.657-.79-2.528l-1.26-5.53c-1.373.3-2.492 1.28-3.804 1.792-1.311.51-2.863.558-4.32.623-2.588.118-5.161.45-7.693.995-.348.07-.786.29-.7.629" opacity=".1"/>
            <ellipse cx="23.835" cy="19.786" fill="#FBB3B2" rx="12.451" ry="12.421"/>
            <path fill="#323444" d="M27.262 40.26a11.26 11.26 0 0 1 2.822-3.752c1.754-1.534 4.152-2.777 4.565-5.066l3.8 4.414c.206.205.366.451.47.723a1.817 1.817 0 0 1-.358 1.458c-.94 1.497-2.421 2.566-3.822 3.65a116.011 116.011 0 0 0-9.212 8.105.94.94 0 0 1-.493.3.89.89 0 0 1-.513-.145 21.38 21.38 0 0 1-6.569-5.328c-.136-.165-.305-.352-.526-.338a.678.678 0 0 0-.353.183c-1.265 1.032-2.647 2.265-4.27 2.106 2.102-1.506 3.292-4.02 3.734-6.567.087-.872.267-1.732.536-2.566a2.682 2.682 0 0 1 1.834-1.736c-1.025 1.562-.325 3.776 1.053 5.038a10.392 10.392 0 0 0 4.665 2.257c1.598.3 2.068-1.506 2.637-2.735zM11.064 113.662c1.773.436 3.451 1.177 5.172 1.726a24.775 24.775 0 0 0 9.71 1.018 5.251 5.251 0 0 0 2.821-.896c.221-.178.423-.39.658-.553a4.61 4.61 0 0 1 1.265-.521c4.312-1.346 7.923-4.25 11.426-7.093.113-.093.24-.21.23-.36a.469.469 0 0 0-.14-.268l-1.844-2.111c-4.833.82-9.785.511-14.689.39a21.38 21.38 0 0 0-3.019.08c-.968.112-1.923.356-2.877.562-3.625.788-7.33 1.088-11.003 1.604a1.7 1.7 0 0 0-.729.225c-.155.12-.287.266-.39.432l-1.288 1.806a5.676 5.676 0 0 0-1.082 2.068c-.3 1.408.33 1.877 1.528 1.694 1.417-.207 2.86-.14 4.25.197z"/>
            <path fill="#5B5583" d="M25.476 47.644a22.896 22.896 0 0 0-4.848-3.776 6.88 6.88 0 0 0-2.351-.938 2.94 2.94 0 0 0-2.408.59c-.418.371-.681.887-1.086 1.277a5.406 5.406 0 0 1-1.72.97 30.545 30.545 0 0 0-6.048 3.44 13.858 13.858 0 0 0-2.74 2.523c-2.13 2.72-2.45 6.421-2.394 9.874.042 2.401 2.35 4.184 3.94 5.98a44.067 44.067 0 0 1 4.034 5.63c.856 1.35 1.75 2.814 1.641 4.423-.089 1.318-.86 2.556-.738 3.87.043.469.193.9.235 1.355.085.938-.286 1.877-.38 2.815-.127 1.327.305 2.645.329 3.982a12.636 12.636 0 0 1-.348 2.716c-.903 4.288-2.036 8.598-1.806 12.975l-2.605.469a2.192 2.192 0 0 1-.503 3.504c4.067 1.356 8.464.67 12.776.666 3.568 0 7.123.47 10.687.403 3.564-.065 7.241-.708 10.18-2.72.8-.544 1.533-1.182 2.375-1.656a11.733 11.733 0 0 1 3.597-1.173 35.777 35.777 0 0 1 7.053-.628c1.157 0 2.417.047 3.338-.648 1.016-.769 1.275-2.162 1.41-3.424.137-1.332.222-2.669.245-4.006a17.23 17.23 0 0 0-.164-3.114c-.141-.754-.325-1.5-.55-2.233l-1.773-6.23c-.734-2.57.287-5.39.503-8.054.052-.628.061-1.36-.423-1.763-.174-.146-.414-.244-.47-.47a.8.8 0 0 1 .113-.628c.94-1.876 2.35-3.532 3.639-5.226 2.164-2.97 4.173-6.05 6.019-9.226a29.655 29.655 0 0 0-7.966-17.769c-.94-1.018-2.017-1.993-3.333-2.453a9.896 9.896 0 0 0-2.652-.427c-3.687-.249-7.524-.47-10.735-2.317-.23-.16-.492-.27-.767-.324-.71-.08-1.227.62-1.688 1.173-1.185 1.407-2.929 2.214-4.462 3.25-2.859 1.938-5.092 4.602-7.156 7.318z"/>
            <path fill="#5B5583" d="M64.554 61.111c.734 2.317.663 4.794.903 7.21a27.99 27.99 0 0 0 .767 4.32c.168.78.47 1.524.893 2.2.423.62 1.03 1.121 1.298 1.82.146.474.211.968.192 1.464l.057 3.236a11.612 11.612 0 0 1-.767 5.038l-2.026 6.15c-1.096 3.33-2.22 6.712-4.194 9.611-.279.49-.7.885-1.209 1.13a5.881 5.881 0 0 1-1.218.188 3.126 3.126 0 0 0-2.581 3.035 7.133 7.133 0 0 0-1.735-1.768l-4.124-3.284c-1.41-1.144-2.882-2.308-4.594-2.97a12.433 12.433 0 0 0 8.662-10.44 4.681 4.681 0 0 1 .47-2.055c.343-.554.978-.976 1.025-1.628.056-.82-.875-1.44-.875-2.26 0-.545.405-.995.583-1.507a3.772 3.772 0 0 0 0-1.928l-.569-3.152a2.402 2.402 0 0 0-.282-.9 5.832 5.832 0 0 0-.705-.741c-.978-1.093-.546-2.815 0-4.161a39.744 39.744 0 0 1 4.805-8.41c.69-.873 1.33-1.785 1.914-2.73.498-.864.611-2.06 1.138-2.815.677 1.773 1.594 3.523 2.172 5.347z"/>
            <path fill="#323444" d="M46.07 98.684c-.21.156-.39.346-.535.563a4.754 4.754 0 0 1-2.13 1.515c.47.338.898.671 1.34 1.013a58.658 58.658 0 0 1 8.933 8.524c.297-1.056 2.07-.98 2.502-1.99.102-.288.134-.597.094-.9-.09-1.58-.316-3.15-.677-4.69a5.303 5.303 0 0 0-.94-2.196c-.659-.793-1.684-1.173-2.662-1.501-1.481-.516-4.42-1.243-5.924-.338z"/>
            <path fill="#FBB3B2" d="M40.193 102.371c-1.41 1.042-2.647 2.346-4.232 3.059-1.119.506-2.393.727-3.371 1.482.531 1.168 1.914 1.773 3.197 1.726a7.61 7.61 0 0 0 3.578-1.309c.842-.516 1.83-1.116 2.746-.755.142.713-.47 1.384-.47 2.106 0 .723.602 1.248 1.195 1.628 2.82 1.815 6.45 1.665 9.813 1.454a.886.886 0 0 0 .54-.16.848.848 0 0 0 .203-.619c.042-.74.06-1.477.065-2.218a3.177 3.177 0 0 0-1.363-3.134 38.373 38.373 0 0 0-5.878-4.151c-2.069-1.196-4.166-.488-6.023.891z"/>
            <path fill="#3C354C" d="M28.208 14.593c-2.088.249-3.607 1.876-3.395 3.645.211 1.768 2.073 2.988 4.161 2.734 2.088-.253 3.606-1.876 3.395-3.64-.212-1.763-2.074-2.988-4.161-2.739zm.71 5.892c-1.768.21-3.344-.826-3.527-2.318-.183-1.491 1.11-2.87 2.873-3.082 1.763-.21 3.343.826 3.526 2.318.184 1.491-1.11 2.87-2.872 3.082zM18.032 15.813c-2.087.248-3.606 1.876-3.395 3.64.212 1.763 2.074 2.988 4.162 2.739 2.087-.249 3.606-1.876 3.395-3.645-.212-1.768-2.074-2.983-4.162-2.734zm.71 5.886c-1.768.212-3.343-.825-3.521-2.312-.18-1.487 1.104-2.87 2.872-3.087 1.768-.215 3.344.826 3.522 2.318.179 1.491-1.11 2.87-2.873 3.081z"/>
            <path fill="#3C354C" d="M10.476 16.718l4.538.966-.447 1.192-4.279-1.253zM35.768 13.688L31.584 15.7l.719 1.05 3.86-2.227zM21.775 17.384l3.183-.38-.164.788-2.732.183z"/>
            <path fill="#CBCEDA" d="M15.601 16.32c.3-.644.46-1.342.47-2.05.012-.425.085-.845.217-1.248a3.491 3.491 0 0 1 1.025-1.31c1.467-1.238 3.569-1.875 5.642-1.965a13.07 13.07 0 0 1 6.527 1.408 5.077 5.077 0 0 1 1.622 1.2c.658.803.8 1.84 1.462 2.632a3.847 3.847 0 0 0 3.602 1.126c.23-.816-.07-1.68.047-2.514.185-.716.436-1.413.748-2.083.729-2.144-.334-4.63-2.525-5.91-.767-.47-1.674-.775-2.248-1.408-.573-.633-.71-1.29-1.105-1.923C30.037.6 27.324-.183 25.26.591c-.649.244-1.222.615-1.88.877-1.223.502-2.615.591-3.96.76a12.15 12.15 0 0 0-3.836 1.004c-1.162.572-2.135 1.492-2.403 2.59-.127.506-.099 1.031-.226 1.533-.649 2.547-4.838 3.786-5.073 6.384-.085.938.428 1.839 1.067 2.604.442.52 1.5 1.913 2.248 2.115.747.202 1.316-.506 2.03-.75 1.13-.352 1.811-.427 2.375-1.389z"/>
        </g>
        <path fill="#46455B" d="M368.64 286.08c0 23.7 14.886 42.88 33.28 42.88"/>
        <path fill="#EDC73B" d="M401.92 328.96c0-23.703 16.604-42.88 37.12-42.88M380.8 288.64c0 22.287 9.448 40.32 21.12 40.32"/>
        <path fill="#46455B" d="M401.92 328.96c0-30.42 19.18-55.04 42.88-55.04"/>
        <ellipse cx="400.64" cy="335.36" fill="#6C63FF" opacity=".1" rx="8.32" ry="1.28"/>
        <path fill="#A8A8A8" d="M394.88 328.962s4.649-.147 6.043-1.162c1.395-1.016 7.146-2.235 7.494-.603.349 1.632 6.973 8.119 1.734 8.161-5.239.043-12.189-.835-13.584-1.703-1.394-.868-1.687-4.693-1.687-4.693z"/>
        <path fill="#000" d="M410.244 334.794c-5.242.042-12.18-.836-13.58-1.704-1.064-.66-1.487-3.038-1.63-4.13h-.154s.293 3.826 1.692 4.694c1.398.869 8.337 1.747 13.58 1.704 1.514 0 2.035-.564 2.007-1.376-.21.494-.762.802-1.915.812z" opacity=".2"/>
        <path fill="#46455B" d="M10.24 300.16c0 18.761 11.735 33.92 26.24 33.92"/>
        <path fill="#6C63FF" d="M36.48 334.08c0-19.102 13.174-34.56 29.44-34.56"/>
        <path fill="#EDC73B" d="M19.84 302.08c0 17.7 7.447 32 16.64 32"/>
        <path fill="#46455B" d="M37.12 334.08c0-24.054 15.173-43.52 33.92-43.52"/>
        <ellipse cx="35.84" cy="339.52" fill="#6C63FF" opacity=".1" rx="6.4" ry="1"/>
        <path fill="#A8A8A8" d="M31.36 334.2s3.782-.118 4.92-.937c1.137-.82 5.823-1.755 6.104-.468.28 1.287 5.685 6.371 1.427 6.404-4.258.033-9.925-.656-11.062-1.334-1.137-.68-1.389-3.666-1.389-3.666z"/>
        <path fill="#000" d="M43.878 338.75c-4.284.033-9.929-.669-11.066-1.366-.867-.525-1.21-2.43-1.328-3.304h-.124s.238 3.06 1.376 3.758c1.137.697 6.796 1.394 11.066 1.36 1.232 0 1.66-.448 1.637-1.102-.171.382-.642.625-1.561.654z" opacity=".2"/>
    </g>
</svg>
